<svg xmlns="http://www.w3.org/2000/svg" viewBox="0 0 143 34" shape-rendering="crispEdges" width="2288" height="544">
<rect x="11" y="3" width="1" height="1" fill="#3A2544"/>
<rect x="26" y="3" width="1" height="1" fill="#3A2544"/>
<rect x="12" y="4" width="1" height="1" fill="#3A2544"/>
<rect x="25" y="4" width="1" height="1" fill="#3A2544"/>
<rect x="13" y="5" width="1" height="1" fill="#3A2544"/>
<rect x="24" y="5" width="1" height="1" fill="#3A2544"/>
<rect x="38" y="5" width="8" height="1" fill="#2B1B33"/>
<rect x="52" y="5" width="6" height="1" fill="#2B1B33"/>
<rect x="62" y="5" width="8" height="1" fill="#2B1B33"/>
<rect x="76" y="5" width="6" height="1" fill="#2B1B33"/>
<rect x="86" y="5" width="2" height="1" fill="#2B1B33"/>
<rect x="100" y="5" width="6" height="1" fill="#2B1B33"/>
<rect x="14" y="6" width="1" height="1" fill="#3A2544"/>
<rect x="23" y="6" width="1" height="1" fill="#3A2544"/>
<rect x="38" y="6" width="8" height="1" fill="#2B1B33"/>
<rect x="52" y="6" width="6" height="1" fill="#2B1B33"/>
<rect x="62" y="6" width="8" height="1" fill="#2B1B33"/>
<rect x="76" y="6" width="6" height="1" fill="#2B1B33"/>
<rect x="86" y="6" width="2" height="1" fill="#2B1B33"/>
<rect x="100" y="6" width="6" height="1" fill="#2B1B33"/>
<rect x="15" y="7" width="1" height="1" fill="#3A2544"/>
<rect x="22" y="7" width="1" height="1" fill="#3A2544"/>
<rect x="38" y="7" width="2" height="1" fill="#2B1B33"/>
<rect x="46" y="7" width="2" height="1" fill="#2B1B33"/>
<rect x="50" y="7" width="2" height="1" fill="#2B1B33"/>
<rect x="58" y="7" width="2" height="1" fill="#2B1B33"/>
<rect x="62" y="7" width="2" height="1" fill="#2B1B33"/>
<rect x="70" y="7" width="2" height="1" fill="#2B1B33"/>
<rect x="74" y="7" width="2" height="1" fill="#2B1B33"/>
<rect x="82" y="7" width="2" height="1" fill="#2B1B33"/>
<rect x="86" y="7" width="2" height="1" fill="#2B1B33"/>
<rect x="98" y="7" width="2" height="1" fill="#2B1B33"/>
<rect x="106" y="7" width="2" height="1" fill="#2B1B33"/>
<rect x="16" y="8" width="6" height="1" fill="#3A2544"/>
<rect x="38" y="8" width="2" height="1" fill="#2B1B33"/>
<rect x="46" y="8" width="2" height="1" fill="#2B1B33"/>
<rect x="50" y="8" width="2" height="1" fill="#2B1B33"/>
<rect x="58" y="8" width="2" height="1" fill="#2B1B33"/>
<rect x="62" y="8" width="2" height="1" fill="#2B1B33"/>
<rect x="70" y="8" width="2" height="1" fill="#2B1B33"/>
<rect x="74" y="8" width="2" height="1" fill="#2B1B33"/>
<rect x="82" y="8" width="2" height="1" fill="#2B1B33"/>
<rect x="86" y="8" width="2" height="1" fill="#2B1B33"/>
<rect x="98" y="8" width="2" height="1" fill="#2B1B33"/>
<rect x="106" y="8" width="2" height="1" fill="#2B1B33"/>
<rect x="17" y="9" width="1" height="1" fill="#F5D547"/>
<rect x="18" y="9" width="2" height="1" fill="#3A2544"/>
<rect x="20" y="9" width="1" height="1" fill="#F5D547"/>
<rect x="38" y="9" width="2" height="1" fill="#2B1B33"/>
<rect x="46" y="9" width="2" height="1" fill="#2B1B33"/>
<rect x="50" y="9" width="2" height="1" fill="#2B1B33"/>
<rect x="58" y="9" width="2" height="1" fill="#2B1B33"/>
<rect x="62" y="9" width="2" height="1" fill="#2B1B33"/>
<rect x="70" y="9" width="2" height="1" fill="#2B1B33"/>
<rect x="74" y="9" width="2" height="1" fill="#2B1B33"/>
<rect x="82" y="9" width="2" height="1" fill="#2B1B33"/>
<rect x="86" y="9" width="2" height="1" fill="#2B1B33"/>
<rect x="98" y="9" width="2" height="1" fill="#2B1B33"/>
<rect x="106" y="9" width="2" height="1" fill="#2B1B33"/>
<rect x="7" y="10" width="2" height="1" fill="#2B1B33"/>
<rect x="17" y="10" width="4" height="1" fill="#3A2544"/>
<rect x="29" y="10" width="2" height="1" fill="#2B1B33"/>
<rect x="38" y="10" width="2" height="1" fill="#2B1B33"/>
<rect x="46" y="10" width="2" height="1" fill="#2B1B33"/>
<rect x="50" y="10" width="2" height="1" fill="#2B1B33"/>
<rect x="58" y="10" width="2" height="1" fill="#2B1B33"/>
<rect x="62" y="10" width="2" height="1" fill="#2B1B33"/>
<rect x="70" y="10" width="2" height="1" fill="#2B1B33"/>
<rect x="74" y="10" width="2" height="1" fill="#2B1B33"/>
<rect x="82" y="10" width="2" height="1" fill="#2B1B33"/>
<rect x="86" y="10" width="2" height="1" fill="#2B1B33"/>
<rect x="98" y="10" width="2" height="1" fill="#2B1B33"/>
<rect x="106" y="10" width="2" height="1" fill="#2B1B33"/>
<rect x="5" y="11" width="2" height="1" fill="#2B1B33"/>
<rect x="7" y="11" width="2" height="1" fill="#7B2D8E"/>
<rect x="9" y="11" width="8" height="1" fill="#2B1B33"/>
<rect x="17" y="11" width="1" height="1" fill="#7B2D8E"/>
<rect x="18" y="11" width="2" height="1" fill="#3A2544"/>
<rect x="20" y="11" width="1" height="1" fill="#7B2D8E"/>
<rect x="21" y="11" width="8" height="1" fill="#2B1B33"/>
<rect x="29" y="11" width="2" height="1" fill="#7B2D8E"/>
<rect x="31" y="11" width="2" height="1" fill="#2B1B33"/>
<rect x="38" y="11" width="8" height="1" fill="#2B1B33"/>
<rect x="50" y="11" width="10" height="1" fill="#2B1B33"/>
<rect x="62" y="11" width="2" height="1" fill="#2B1B33"/>
<rect x="70" y="11" width="2" height="1" fill="#2B1B33"/>
<rect x="74" y="11" width="10" height="1" fill="#2B1B33"/>
<rect x="86" y="11" width="2" height="1" fill="#2B1B33"/>
<rect x="98" y="11" width="10" height="1" fill="#2B1B33"/>
<rect x="4" y="12" width="1" height="1" fill="#2B1B33"/>
<rect x="5" y="12" width="13" height="1" fill="#7B2D8E"/>
<rect x="18" y="12" width="2" height="1" fill="#3A2544"/>
<rect x="20" y="12" width="13" height="1" fill="#7B2D8E"/>
<rect x="33" y="12" width="1" height="1" fill="#2B1B33"/>
<rect x="38" y="12" width="8" height="1" fill="#2B1B33"/>
<rect x="50" y="12" width="10" height="1" fill="#2B1B33"/>
<rect x="62" y="12" width="2" height="1" fill="#2B1B33"/>
<rect x="70" y="12" width="2" height="1" fill="#2B1B33"/>
<rect x="74" y="12" width="10" height="1" fill="#2B1B33"/>
<rect x="86" y="12" width="2" height="1" fill="#2B1B33"/>
<rect x="98" y="12" width="10" height="1" fill="#2B1B33"/>
<rect x="4" y="13" width="1" height="1" fill="#2B1B33"/>
<rect x="5" y="13" width="2" height="1" fill="#7B2D8E"/>
<rect x="7" y="13" width="1" height="1" fill="#7BC043"/>
<rect x="8" y="13" width="6" height="1" fill="#7B2D8E"/>
<rect x="14" y="13" width="1" height="1" fill="#7BC043"/>
<rect x="15" y="13" width="3" height="1" fill="#7B2D8E"/>
<rect x="18" y="13" width="2" height="1" fill="#3A2544"/>
<rect x="20" y="13" width="3" height="1" fill="#7B2D8E"/>
<rect x="23" y="13" width="1" height="1" fill="#7BC043"/>
<rect x="24" y="13" width="6" height="1" fill="#7B2D8E"/>
<rect x="30" y="13" width="1" height="1" fill="#7BC043"/>
<rect x="31" y="13" width="2" height="1" fill="#7B2D8E"/>
<rect x="33" y="13" width="1" height="1" fill="#2B1B33"/>
<rect x="38" y="13" width="2" height="1" fill="#2B1B33"/>
<rect x="50" y="13" width="2" height="1" fill="#2B1B33"/>
<rect x="58" y="13" width="2" height="1" fill="#2B1B33"/>
<rect x="62" y="13" width="2" height="1" fill="#2B1B33"/>
<rect x="70" y="13" width="2" height="1" fill="#2B1B33"/>
<rect x="74" y="13" width="2" height="1" fill="#2B1B33"/>
<rect x="82" y="13" width="2" height="1" fill="#2B1B33"/>
<rect x="86" y="13" width="2" height="1" fill="#2B1B33"/>
<rect x="98" y="13" width="2" height="1" fill="#2B1B33"/>
<rect x="106" y="13" width="2" height="1" fill="#2B1B33"/>
<rect x="4" y="14" width="1" height="1" fill="#2B1B33"/>
<rect x="5" y="14" width="6" height="1" fill="#7B2D8E"/>
<rect x="11" y="14" width="1" height="1" fill="#7BC043"/>
<rect x="12" y="14" width="6" height="1" fill="#7B2D8E"/>
<rect x="18" y="14" width="2" height="1" fill="#3A2544"/>
<rect x="20" y="14" width="6" height="1" fill="#7B2D8E"/>
<rect x="26" y="14" width="1" height="1" fill="#7BC043"/>
<rect x="27" y="14" width="6" height="1" fill="#7B2D8E"/>
<rect x="33" y="14" width="1" height="1" fill="#2B1B33"/>
<rect x="38" y="14" width="2" height="1" fill="#2B1B33"/>
<rect x="50" y="14" width="2" height="1" fill="#2B1B33"/>
<rect x="58" y="14" width="2" height="1" fill="#2B1B33"/>
<rect x="62" y="14" width="2" height="1" fill="#2B1B33"/>
<rect x="70" y="14" width="2" height="1" fill="#2B1B33"/>
<rect x="74" y="14" width="2" height="1" fill="#2B1B33"/>
<rect x="82" y="14" width="2" height="1" fill="#2B1B33"/>
<rect x="86" y="14" width="2" height="1" fill="#2B1B33"/>
<rect x="98" y="14" width="2" height="1" fill="#2B1B33"/>
<rect x="106" y="14" width="2" height="1" fill="#2B1B33"/>
<rect x="4" y="15" width="1" height="1" fill="#2B1B33"/>
<rect x="5" y="15" width="10" height="1" fill="#7B2D8E"/>
<rect x="15" y="15" width="1" height="1" fill="#7BC043"/>
<rect x="16" y="15" width="2" height="1" fill="#7B2D8E"/>
<rect x="18" y="15" width="2" height="1" fill="#3A2544"/>
<rect x="20" y="15" width="2" height="1" fill="#7B2D8E"/>
<rect x="22" y="15" width="1" height="1" fill="#7BC043"/>
<rect x="23" y="15" width="10" height="1" fill="#7B2D8E"/>
<rect x="33" y="15" width="1" height="1" fill="#2B1B33"/>
<rect x="38" y="15" width="2" height="1" fill="#2B1B33"/>
<rect x="50" y="15" width="2" height="1" fill="#2B1B33"/>
<rect x="58" y="15" width="2" height="1" fill="#2B1B33"/>
<rect x="62" y="15" width="2" height="1" fill="#2B1B33"/>
<rect x="70" y="15" width="2" height="1" fill="#2B1B33"/>
<rect x="74" y="15" width="2" height="1" fill="#2B1B33"/>
<rect x="82" y="15" width="2" height="1" fill="#2B1B33"/>
<rect x="86" y="15" width="2" height="1" fill="#2B1B33"/>
<rect x="98" y="15" width="2" height="1" fill="#2B1B33"/>
<rect x="106" y="15" width="2" height="1" fill="#2B1B33"/>
<rect x="5" y="16" width="1" height="1" fill="#2B1B33"/>
<rect x="6" y="16" width="1" height="1" fill="#7B2D8E"/>
<rect x="7" y="16" width="1" height="1" fill="#7BC043"/>
<rect x="8" y="16" width="3" height="1" fill="#7B2D8E"/>
<rect x="11" y="16" width="1" height="1" fill="#7BC043"/>
<rect x="12" y="16" width="6" height="1" fill="#7B2D8E"/>
<rect x="18" y="16" width="2" height="1" fill="#3A2544"/>
<rect x="20" y="16" width="6" height="1" fill="#7B2D8E"/>
<rect x="26" y="16" width="1" height="1" fill="#7BC043"/>
<rect x="27" y="16" width="3" height="1" fill="#7B2D8E"/>
<rect x="30" y="16" width="1" height="1" fill="#7BC043"/>
<rect x="31" y="16" width="1" height="1" fill="#7B2D8E"/>
<rect x="32" y="16" width="1" height="1" fill="#2B1B33"/>
<rect x="38" y="16" width="2" height="1" fill="#2B1B33"/>
<rect x="50" y="16" width="2" height="1" fill="#2B1B33"/>
<rect x="58" y="16" width="2" height="1" fill="#2B1B33"/>
<rect x="62" y="16" width="2" height="1" fill="#2B1B33"/>
<rect x="70" y="16" width="2" height="1" fill="#2B1B33"/>
<rect x="74" y="16" width="2" height="1" fill="#2B1B33"/>
<rect x="82" y="16" width="2" height="1" fill="#2B1B33"/>
<rect x="86" y="16" width="2" height="1" fill="#2B1B33"/>
<rect x="98" y="16" width="2" height="1" fill="#2B1B33"/>
<rect x="106" y="16" width="2" height="1" fill="#2B1B33"/>
<rect x="5" y="17" width="1" height="1" fill="#2B1B33"/>
<rect x="6" y="17" width="9" height="1" fill="#7B2D8E"/>
<rect x="15" y="17" width="1" height="1" fill="#7BC043"/>
<rect x="16" y="17" width="2" height="1" fill="#7B2D8E"/>
<rect x="18" y="17" width="2" height="1" fill="#3A2544"/>
<rect x="20" y="17" width="2" height="1" fill="#7B2D8E"/>
<rect x="22" y="17" width="1" height="1" fill="#7BC043"/>
<rect x="23" y="17" width="9" height="1" fill="#7B2D8E"/>
<rect x="32" y="17" width="1" height="1" fill="#2B1B33"/>
<rect x="38" y="17" width="2" height="1" fill="#2B1B33"/>
<rect x="50" y="17" width="2" height="1" fill="#2B1B33"/>
<rect x="58" y="17" width="2" height="1" fill="#2B1B33"/>
<rect x="62" y="17" width="8" height="1" fill="#2B1B33"/>
<rect x="74" y="17" width="2" height="1" fill="#2B1B33"/>
<rect x="82" y="17" width="2" height="1" fill="#2B1B33"/>
<rect x="86" y="17" width="10" height="1" fill="#2B1B33"/>
<rect x="98" y="17" width="2" height="1" fill="#2B1B33"/>
<rect x="106" y="17" width="2" height="1" fill="#2B1B33"/>
<rect x="6" y="18" width="1" height="1" fill="#2B1B33"/>
<rect x="7" y="18" width="3" height="1" fill="#7B2D8E"/>
<rect x="10" y="18" width="1" height="1" fill="#7BC043"/>
<rect x="11" y="18" width="7" height="1" fill="#7B2D8E"/>
<rect x="18" y="18" width="2" height="1" fill="#3A2544"/>
<rect x="20" y="18" width="7" height="1" fill="#7B2D8E"/>
<rect x="27" y="18" width="1" height="1" fill="#7BC043"/>
<rect x="28" y="18" width="3" height="1" fill="#7B2D8E"/>
<rect x="31" y="18" width="1" height="1" fill="#2B1B33"/>
<rect x="38" y="18" width="2" height="1" fill="#2B1B33"/>
<rect x="50" y="18" width="2" height="1" fill="#2B1B33"/>
<rect x="58" y="18" width="2" height="1" fill="#2B1B33"/>
<rect x="62" y="18" width="8" height="1" fill="#2B1B33"/>
<rect x="74" y="18" width="2" height="1" fill="#2B1B33"/>
<rect x="82" y="18" width="2" height="1" fill="#2B1B33"/>
<rect x="86" y="18" width="10" height="1" fill="#2B1B33"/>
<rect x="98" y="18" width="2" height="1" fill="#2B1B33"/>
<rect x="106" y="18" width="2" height="1" fill="#2B1B33"/>
<rect x="7" y="19" width="2" height="1" fill="#2B1B33"/>
<rect x="9" y="19" width="9" height="1" fill="#7B2D8E"/>
<rect x="18" y="19" width="2" height="1" fill="#3A2544"/>
<rect x="20" y="19" width="9" height="1" fill="#7B2D8E"/>
<rect x="29" y="19" width="2" height="1" fill="#2B1B33"/>
<rect x="9" y="20" width="1" height="1" fill="#2B1B33"/>
<rect x="10" y="20" width="3" height="1" fill="#7B2D8E"/>
<rect x="13" y="20" width="5" height="1" fill="#B06AC2"/>
<rect x="18" y="20" width="2" height="1" fill="#3A2544"/>
<rect x="20" y="20" width="5" height="1" fill="#B06AC2"/>
<rect x="25" y="20" width="3" height="1" fill="#7B2D8E"/>
<rect x="28" y="20" width="1" height="1" fill="#2B1B33"/>
<rect x="8" y="21" width="1" height="1" fill="#2B1B33"/>
<rect x="9" y="21" width="9" height="1" fill="#B06AC2"/>
<rect x="18" y="21" width="2" height="1" fill="#3A2544"/>
<rect x="20" y="21" width="9" height="1" fill="#B06AC2"/>
<rect x="29" y="21" width="1" height="1" fill="#2B1B33"/>
<rect x="7" y="22" width="1" height="1" fill="#2B1B33"/>
<rect x="8" y="22" width="4" height="1" fill="#B06AC2"/>
<rect x="12" y="22" width="1" height="1" fill="#7BC043"/>
<rect x="13" y="22" width="5" height="1" fill="#B06AC2"/>
<rect x="18" y="22" width="2" height="1" fill="#3A2544"/>
<rect x="20" y="22" width="5" height="1" fill="#B06AC2"/>
<rect x="25" y="22" width="1" height="1" fill="#7BC043"/>
<rect x="26" y="22" width="4" height="1" fill="#B06AC2"/>
<rect x="30" y="22" width="1" height="1" fill="#2B1B33"/>
<rect x="39" y="22" width="4" height="1" fill="#7BC043"/>
<rect x="44" y="22" width="4" height="1" fill="#7BC043"/>
<rect x="51" y="22" width="3" height="1" fill="#7BC043"/>
<rect x="56" y="22" width="4" height="1" fill="#7BC043"/>
<rect x="63" y="22" width="3" height="1" fill="#7BC043"/>
<rect x="68" y="22" width="1" height="1" fill="#7BC043"/>
<rect x="74" y="22" width="1" height="1" fill="#7BC043"/>
<rect x="78" y="22" width="1" height="1" fill="#7BC043"/>
<rect x="80" y="22" width="4" height="1" fill="#7BC043"/>
<rect x="86" y="22" width="5" height="1" fill="#7BC043"/>
<rect x="99" y="22" width="4" height="1" fill="#7BC043"/>
<rect x="104" y="22" width="5" height="1" fill="#7BC043"/>
<rect x="111" y="22" width="3" height="1" fill="#7BC043"/>
<rect x="116" y="22" width="5" height="1" fill="#7BC043"/>
<rect x="122" y="22" width="5" height="1" fill="#7BC043"/>
<rect x="129" y="22" width="3" height="1" fill="#7BC043"/>
<rect x="134" y="22" width="1" height="1" fill="#7BC043"/>
<rect x="138" y="22" width="1" height="1" fill="#7BC043"/>
<rect x="7" y="23" width="1" height="1" fill="#2B1B33"/>
<rect x="8" y="23" width="10" height="1" fill="#B06AC2"/>
<rect x="18" y="23" width="2" height="1" fill="#3A2544"/>
<rect x="20" y="23" width="10" height="1" fill="#B06AC2"/>
<rect x="30" y="23" width="1" height="1" fill="#2B1B33"/>
<rect x="38" y="23" width="1" height="1" fill="#7BC043"/>
<rect x="44" y="23" width="1" height="1" fill="#7BC043"/>
<rect x="48" y="23" width="1" height="1" fill="#7BC043"/>
<rect x="50" y="23" width="1" height="1" fill="#7BC043"/>
<rect x="54" y="23" width="1" height="1" fill="#7BC043"/>
<rect x="56" y="23" width="1" height="1" fill="#7BC043"/>
<rect x="60" y="23" width="1" height="1" fill="#7BC043"/>
<rect x="62" y="23" width="1" height="1" fill="#7BC043"/>
<rect x="66" y="23" width="1" height="1" fill="#7BC043"/>
<rect x="68" y="23" width="1" height="1" fill="#7BC043"/>
<rect x="74" y="23" width="1" height="1" fill="#7BC043"/>
<rect x="78" y="23" width="1" height="1" fill="#7BC043"/>
<rect x="80" y="23" width="1" height="1" fill="#7BC043"/>
<rect x="84" y="23" width="1" height="1" fill="#7BC043"/>
<rect x="86" y="23" width="1" height="1" fill="#7BC043"/>
<rect x="98" y="23" width="1" height="1" fill="#7BC043"/>
<rect x="106" y="23" width="1" height="1" fill="#7BC043"/>
<rect x="110" y="23" width="1" height="1" fill="#7BC043"/>
<rect x="114" y="23" width="1" height="1" fill="#7BC043"/>
<rect x="118" y="23" width="1" height="1" fill="#7BC043"/>
<rect x="124" y="23" width="1" height="1" fill="#7BC043"/>
<rect x="128" y="23" width="1" height="1" fill="#7BC043"/>
<rect x="132" y="23" width="1" height="1" fill="#7BC043"/>
<rect x="134" y="23" width="2" height="1" fill="#7BC043"/>
<rect x="138" y="23" width="1" height="1" fill="#7BC043"/>
<rect x="8" y="24" width="1" height="1" fill="#2B1B33"/>
<rect x="9" y="24" width="2" height="1" fill="#B06AC2"/>
<rect x="11" y="24" width="1" height="1" fill="#7BC043"/>
<rect x="12" y="24" width="6" height="1" fill="#B06AC2"/>
<rect x="18" y="24" width="2" height="1" fill="#3A2544"/>
<rect x="20" y="24" width="6" height="1" fill="#B06AC2"/>
<rect x="26" y="24" width="1" height="1" fill="#7BC043"/>
<rect x="27" y="24" width="2" height="1" fill="#B06AC2"/>
<rect x="29" y="24" width="1" height="1" fill="#2B1B33"/>
<rect x="38" y="24" width="1" height="1" fill="#7BC043"/>
<rect x="44" y="24" width="1" height="1" fill="#7BC043"/>
<rect x="48" y="24" width="1" height="1" fill="#7BC043"/>
<rect x="50" y="24" width="1" height="1" fill="#7BC043"/>
<rect x="54" y="24" width="1" height="1" fill="#7BC043"/>
<rect x="56" y="24" width="1" height="1" fill="#7BC043"/>
<rect x="60" y="24" width="1" height="1" fill="#7BC043"/>
<rect x="62" y="24" width="1" height="1" fill="#7BC043"/>
<rect x="66" y="24" width="1" height="1" fill="#7BC043"/>
<rect x="68" y="24" width="1" height="1" fill="#7BC043"/>
<rect x="74" y="24" width="1" height="1" fill="#7BC043"/>
<rect x="78" y="24" width="1" height="1" fill="#7BC043"/>
<rect x="80" y="24" width="1" height="1" fill="#7BC043"/>
<rect x="84" y="24" width="1" height="1" fill="#7BC043"/>
<rect x="86" y="24" width="1" height="1" fill="#7BC043"/>
<rect x="98" y="24" width="1" height="1" fill="#7BC043"/>
<rect x="106" y="24" width="1" height="1" fill="#7BC043"/>
<rect x="110" y="24" width="1" height="1" fill="#7BC043"/>
<rect x="114" y="24" width="1" height="1" fill="#7BC043"/>
<rect x="118" y="24" width="1" height="1" fill="#7BC043"/>
<rect x="124" y="24" width="1" height="1" fill="#7BC043"/>
<rect x="128" y="24" width="1" height="1" fill="#7BC043"/>
<rect x="132" y="24" width="1" height="1" fill="#7BC043"/>
<rect x="134" y="24" width="1" height="1" fill="#7BC043"/>
<rect x="136" y="24" width="1" height="1" fill="#7BC043"/>
<rect x="138" y="24" width="1" height="1" fill="#7BC043"/>
<rect x="9" y="25" width="1" height="1" fill="#2B1B33"/>
<rect x="10" y="25" width="8" height="1" fill="#B06AC2"/>
<rect x="18" y="25" width="2" height="1" fill="#3A2544"/>
<rect x="20" y="25" width="8" height="1" fill="#B06AC2"/>
<rect x="28" y="25" width="1" height="1" fill="#2B1B33"/>
<rect x="39" y="25" width="3" height="1" fill="#7BC043"/>
<rect x="44" y="25" width="4" height="1" fill="#7BC043"/>
<rect x="50" y="25" width="1" height="1" fill="#7BC043"/>
<rect x="54" y="25" width="1" height="1" fill="#7BC043"/>
<rect x="56" y="25" width="4" height="1" fill="#7BC043"/>
<rect x="62" y="25" width="5" height="1" fill="#7BC043"/>
<rect x="68" y="25" width="1" height="1" fill="#7BC043"/>
<rect x="74" y="25" width="1" height="1" fill="#7BC043"/>
<rect x="78" y="25" width="1" height="1" fill="#7BC043"/>
<rect x="80" y="25" width="4" height="1" fill="#7BC043"/>
<rect x="86" y="25" width="4" height="1" fill="#7BC043"/>
<rect x="99" y="25" width="3" height="1" fill="#7BC043"/>
<rect x="106" y="25" width="1" height="1" fill="#7BC043"/>
<rect x="110" y="25" width="5" height="1" fill="#7BC043"/>
<rect x="118" y="25" width="1" height="1" fill="#7BC043"/>
<rect x="124" y="25" width="1" height="1" fill="#7BC043"/>
<rect x="128" y="25" width="1" height="1" fill="#7BC043"/>
<rect x="132" y="25" width="1" height="1" fill="#7BC043"/>
<rect x="134" y="25" width="1" height="1" fill="#7BC043"/>
<rect x="137" y="25" width="2" height="1" fill="#7BC043"/>
<rect x="10" y="26" width="2" height="1" fill="#2B1B33"/>
<rect x="12" y="26" width="5" height="1" fill="#B06AC2"/>
<rect x="17" y="26" width="4" height="1" fill="#3A2544"/>
<rect x="21" y="26" width="5" height="1" fill="#B06AC2"/>
<rect x="26" y="26" width="2" height="1" fill="#2B1B33"/>
<rect x="42" y="26" width="1" height="1" fill="#7BC043"/>
<rect x="44" y="26" width="1" height="1" fill="#7BC043"/>
<rect x="50" y="26" width="1" height="1" fill="#7BC043"/>
<rect x="54" y="26" width="1" height="1" fill="#7BC043"/>
<rect x="56" y="26" width="1" height="1" fill="#7BC043"/>
<rect x="58" y="26" width="1" height="1" fill="#7BC043"/>
<rect x="62" y="26" width="1" height="1" fill="#7BC043"/>
<rect x="66" y="26" width="1" height="1" fill="#7BC043"/>
<rect x="68" y="26" width="1" height="1" fill="#7BC043"/>
<rect x="74" y="26" width="1" height="1" fill="#7BC043"/>
<rect x="78" y="26" width="1" height="1" fill="#7BC043"/>
<rect x="80" y="26" width="1" height="1" fill="#7BC043"/>
<rect x="82" y="26" width="1" height="1" fill="#7BC043"/>
<rect x="86" y="26" width="1" height="1" fill="#7BC043"/>
<rect x="102" y="26" width="1" height="1" fill="#7BC043"/>
<rect x="106" y="26" width="1" height="1" fill="#7BC043"/>
<rect x="110" y="26" width="1" height="1" fill="#7BC043"/>
<rect x="114" y="26" width="1" height="1" fill="#7BC043"/>
<rect x="118" y="26" width="1" height="1" fill="#7BC043"/>
<rect x="124" y="26" width="1" height="1" fill="#7BC043"/>
<rect x="128" y="26" width="1" height="1" fill="#7BC043"/>
<rect x="132" y="26" width="1" height="1" fill="#7BC043"/>
<rect x="134" y="26" width="1" height="1" fill="#7BC043"/>
<rect x="138" y="26" width="1" height="1" fill="#7BC043"/>
<rect x="12" y="27" width="2" height="1" fill="#2B1B33"/>
<rect x="14" y="27" width="3" height="1" fill="#B06AC2"/>
<rect x="17" y="27" width="4" height="1" fill="#3A2544"/>
<rect x="21" y="27" width="3" height="1" fill="#B06AC2"/>
<rect x="24" y="27" width="2" height="1" fill="#2B1B33"/>
<rect x="42" y="27" width="1" height="1" fill="#7BC043"/>
<rect x="44" y="27" width="1" height="1" fill="#7BC043"/>
<rect x="50" y="27" width="1" height="1" fill="#7BC043"/>
<rect x="54" y="27" width="1" height="1" fill="#7BC043"/>
<rect x="56" y="27" width="1" height="1" fill="#7BC043"/>
<rect x="59" y="27" width="1" height="1" fill="#7BC043"/>
<rect x="62" y="27" width="1" height="1" fill="#7BC043"/>
<rect x="66" y="27" width="1" height="1" fill="#7BC043"/>
<rect x="68" y="27" width="1" height="1" fill="#7BC043"/>
<rect x="74" y="27" width="1" height="1" fill="#7BC043"/>
<rect x="78" y="27" width="1" height="1" fill="#7BC043"/>
<rect x="80" y="27" width="1" height="1" fill="#7BC043"/>
<rect x="83" y="27" width="1" height="1" fill="#7BC043"/>
<rect x="86" y="27" width="1" height="1" fill="#7BC043"/>
<rect x="102" y="27" width="1" height="1" fill="#7BC043"/>
<rect x="106" y="27" width="1" height="1" fill="#7BC043"/>
<rect x="110" y="27" width="1" height="1" fill="#7BC043"/>
<rect x="114" y="27" width="1" height="1" fill="#7BC043"/>
<rect x="118" y="27" width="1" height="1" fill="#7BC043"/>
<rect x="124" y="27" width="1" height="1" fill="#7BC043"/>
<rect x="128" y="27" width="1" height="1" fill="#7BC043"/>
<rect x="132" y="27" width="1" height="1" fill="#7BC043"/>
<rect x="134" y="27" width="1" height="1" fill="#7BC043"/>
<rect x="138" y="27" width="1" height="1" fill="#7BC043"/>
<rect x="14" y="28" width="3" height="1" fill="#2B1B33"/>
<rect x="17" y="28" width="4" height="1" fill="#3A2544"/>
<rect x="21" y="28" width="3" height="1" fill="#2B1B33"/>
<rect x="38" y="28" width="4" height="1" fill="#7BC043"/>
<rect x="44" y="28" width="1" height="1" fill="#7BC043"/>
<rect x="51" y="28" width="3" height="1" fill="#7BC043"/>
<rect x="56" y="28" width="1" height="1" fill="#7BC043"/>
<rect x="60" y="28" width="1" height="1" fill="#7BC043"/>
<rect x="62" y="28" width="1" height="1" fill="#7BC043"/>
<rect x="66" y="28" width="1" height="1" fill="#7BC043"/>
<rect x="68" y="28" width="5" height="1" fill="#7BC043"/>
<rect x="75" y="28" width="3" height="1" fill="#7BC043"/>
<rect x="80" y="28" width="1" height="1" fill="#7BC043"/>
<rect x="84" y="28" width="1" height="1" fill="#7BC043"/>
<rect x="86" y="28" width="5" height="1" fill="#7BC043"/>
<rect x="98" y="28" width="4" height="1" fill="#7BC043"/>
<rect x="106" y="28" width="1" height="1" fill="#7BC043"/>
<rect x="110" y="28" width="1" height="1" fill="#7BC043"/>
<rect x="114" y="28" width="1" height="1" fill="#7BC043"/>
<rect x="118" y="28" width="1" height="1" fill="#7BC043"/>
<rect x="122" y="28" width="5" height="1" fill="#7BC043"/>
<rect x="129" y="28" width="3" height="1" fill="#7BC043"/>
<rect x="134" y="28" width="1" height="1" fill="#7BC043"/>
<rect x="138" y="28" width="1" height="1" fill="#7BC043"/>
<rect x="18" y="29" width="2" height="1" fill="#3A2544"/>
<rect x="18" y="30" width="2" height="1" fill="#3A2544"/>
</svg>