<svg xmlns="http://www.w3.org/2000/svg" viewBox="0 0 512 512" width="512" height="512"><title>Pherospora</title><rect width="512" height="512" fill="#F6F3EC"/><g transform="translate(-61.60 -85.18) scale(1.24064)"><defs><linearGradient id="gWd" x1="1" y1="1" x2="0" y2="0"><stop offset="0" stop-color="#2C6448"/><stop offset="1" stop-color="#1A4D34"/></linearGradient><linearGradient id="gWl" x1="1" y1="1" x2="0" y2="0"><stop offset="0" stop-color="#4D9569"/><stop offset="1" stop-color="#387E53"/></linearGradient><radialGradient id="gB" cx="0.62" cy="0.30" r="0.85"><stop offset="0" stop-color="#7A3762"/><stop offset="0.55" stop-color="#6B2150"/><stop offset="1" stop-color="#581B42"/></radialGradient><linearGradient id="gBl" x1="0" y1="0" x2="0.4" y2="1"><stop offset="0" stop-color="#A3507D"/><stop offset="1" stop-color="#943468"/></linearGradient><radialGradient id="gS" cx="0.5" cy="0" r="0.6"><stop offset="0" stop-color="#000" stop-opacity="0.22"/><stop offset="1" stop-color="#000" stop-opacity="0"/></radialGradient><radialGradient id="gH" cx="0.68" cy="0.28" r="0.35"><stop offset="0" stop-color="#FFF" stop-opacity="0.16"/><stop offset="1" stop-color="#FFF" stop-opacity="0"/></radialGradient><clipPath id="cB"><path d="M 256 240 C 264 272, 344 278, 344 346 C 344 398, 304 430, 256 430 C 208 430, 168 398, 168 346 C 168 278, 248 272, 256 240 Z"/></clipPath><g id="silW"><path d="M 247 214 C 226 166, 156 98, 86 96 C 86 160, 140 250, 247 242 Z" stroke-width="5" stroke-linejoin="round"/><g transform="translate(512 0) scale(-1 1)"><path d="M 247 214 C 226 166, 156 98, 86 96 C 86 160, 140 250, 247 242 Z" stroke-width="5" stroke-linejoin="round"/></g></g><g id="sil"><use href="#silW"/><rect x="245" y="204" width="22" height="46" rx="9"/><path d="M 256 240 C 264 272, 344 278, 344 346 C 344 398, 304 430, 256 430 C 208 430, 168 398, 168 346 C 168 278, 248 272, 256 240 Z"/><circle cx="256" cy="195" r="11"/></g><mask id="mW" maskUnits="userSpaceOnUse" x="0" y="0" width="512" height="512"><rect width="512" height="512" fill="#fff"/><path d="M 256 240 C 264 272, 344 278, 344 346 C 344 398, 304 430, 256 430 C 208 430, 168 398, 168 346 C 168 278, 248 272, 256 240 Z" fill="#000" stroke="#000" stroke-width="10" stroke-linejoin="round"/></mask></defs><g mask="url(#mW)"><path d="M 247 214 C 226 166, 156 98, 86 96 C 86 160, 140 250, 247 242 Z" fill="url(#gWd)" stroke="#1E5A3C" stroke-width="5" stroke-linejoin="round"/><path d="M 247 214 C 226 166, 156 98, 86 96 C 128 132, 192 188, 247 230 Z" fill="url(#gWl)"/><path d="M 86 96 C 86 160, 140 250, 247 242 L 247 230 C 192 188, 128 132, 86 96 Z" fill="url(#gWd)"/><circle cx="186" cy="218" r="10" fill="#F6F3EC"/><circle cx="148" cy="192" r="7.5" fill="#F6F3EC"/><circle cx="116" cy="160" r="5" fill="#F6F3EC"/><path d="M 252 186 C 246 166, 236 150, 222 138" stroke="#1E5A3C" stroke-width="4.5" stroke-linecap="round" fill="none"/><g transform="translate(512 0) scale(-1 1)"><path d="M 247 214 C 226 166, 156 98, 86 96 C 86 160, 140 250, 247 242 Z" fill="url(#gWd)" stroke="#1E5A3C" stroke-width="5" stroke-linejoin="round"/><path d="M 247 214 C 226 166, 156 98, 86 96 C 128 132, 192 188, 247 230 Z" fill="url(#gWl)"/><path d="M 86 96 C 86 160, 140 250, 247 242 L 247 230 C 192 188, 128 132, 86 96 Z" fill="url(#gWd)"/><circle cx="186" cy="218" r="10" fill="#F6F3EC"/><circle cx="148" cy="192" r="7.5" fill="#F6F3EC"/><circle cx="116" cy="160" r="5" fill="#F6F3EC"/><path d="M 252 186 C 246 166, 236 150, 222 138" stroke="#1E5A3C" stroke-width="4.5" stroke-linecap="round" fill="none"/></g><rect fill="#1D563A" x="245" y="204" width="22" height="46" rx="9"/></g><path d="M 240 430 Q 236 444, 228 454 M 256 431 L 256 460 M 272 430 Q 276 444, 284 454" stroke="#6B2150" stroke-width="6" stroke-linecap="round" fill="none"/><path d="M 256 240 C 264 272, 344 278, 344 346 C 344 398, 304 430, 256 430 C 208 430, 168 398, 168 346 C 168 278, 248 272, 256 240 Z" fill="url(#gB)"/><path d="M 256 240 C 264 272, 344 278, 344 346 C 344 398, 304 430, 256 430 C 318 406, 330 294, 256 240 Z" fill="url(#gBl)"/><g clip-path="url(#cB)"><use href="#silW" transform="translate(12 16)" fill="#000" fill-opacity="0.16"/></g><circle cx="256" cy="195" r="11" fill="#1D563A"/></g></svg>
